<?xml version="1.0"?>
<svg xmlns="http://www.w3.org/2000/svg" id="Capa_1" enable-background="new 0 0 512 512" height="512" viewBox="0 0 512 512" width="512" class=""><g><g><path d="m337.179 210.011-7.755 65.13c10.638-2.628 21.481-3.962 32.365-3.962 16.214 0 32.1 2.909 47.294 8.636l8.311-69.804z" data-original="#000000" class="active-path" style="fill:#FFFFFF" data-old_color="#000000"/><path d="m481.999 180.009v-60h-30v30h-155.412v30z" data-original="#000000" class="active-path" style="fill:#FFFFFF" data-old_color="#000000"/><path d="m213.585 90.004v-30h-122.648c-17.059 0-30.937-13.878-30.937-30.937v-29.067h-30v29.067c0 33.601 27.336 60.937 60.937 60.937z" data-original="#000000" class="active-path" style="fill:#FFFFFF" data-old_color="#000000"/><path d="m202.539 317.334-23.493-197.328h-80.216l26.584 223.278z" data-original="#000000" class="active-path" style="fill:#FFFFFF" data-old_color="#000000"/><path d="m361.789 301.179c-11.099 0-22.464 1.782-33.762 5.584l-205.425 69.12c-28.44 9.569-47.597 36.227-47.597 66.234 0 38.595 31.288 69.883 69.883 69.883h216.742c58.194 0 105.369-47.175 105.369-105.369 0-60.125-49.231-105.452-105.21-105.452zm-.2 165.821c-33.311 0-60.411-27.1-60.411-60.41 0-33.311 27.1-60.411 60.411-60.411 33.31 0 60.41 27.1 60.41 60.411 0 33.31-27.1 60.41-60.41 60.41z" data-original="#000000" class="active-path" style="fill:#FFFFFF" data-old_color="#000000"/><path d="m361.589 376.179c-16.769 0-30.411 13.642-30.411 30.411 0 16.768 13.642 30.41 30.411 30.41 16.768 0 30.41-13.642 30.41-30.41 0-16.769-13.642-30.411-30.41-30.411z" data-original="#000000" class="active-path" style="fill:#FFFFFF" data-old_color="#000000"/></g></g> </svg>
