<svg xmlns="http://www.w3.org/2000/svg" viewBox="0 0 444.46 424.55"><defs><style>.cls-1{fill:#fff;}</style></defs><title>Recurso 5</title><g id="Capa_2" data-name="Capa 2"><g id="Capa_1-2" data-name="Capa 1"><path class="cls-1" d="M397.81,66.21c11.72,11.72,20.45,31.1,15.58,51.58-7.14,30.09-31.4,42.44-58,42.84-23.54.35-46.53-21-47.39-44.45-.47-12.87-.47-25.28,5.65-37.68C328.17,49,379.78,47.07,397.81,66.21Z"/><path class="cls-1" d="M169.69,365.81l-8.21,5.81a38.19,38.19,0,0,1,6.15-15.76c22.3-34.68,48.88-65.12,85.36-85.72,6.95-3.92,13.83-7.78,22.26-6.26,7.59,7.72,15.07,15.56,22.8,23.15,9.92,9.74,9.85,10.74-3.16,14.61-28.41,8.45-56.76,17.08-82.79,31.69C196.44,342.11,181.28,351.65,169.69,365.81Z"/><path class="cls-1" d="M267.79,12.67h0C236.66-.79,204.31-2.08,171.16,2.14c-109.46,14-188.47,122-167.89,230,12.81,67.22,50.14,119.72,114.28,148.75,6.76-5.53,7.56-12.88,3.56-21-4.32-2.49-11.18-5.41-15-8.53-53.67-44-81.28-99.45-74.62-170.07C40.33,87.67,121.92,13,215.65,12.39c16.85-.11,32.79,2.9,49.9,6.38,17.68,6.34,35.1,11.37,51.73,20.41C302.64,26.75,285.89,18.44,267.79,12.67Z"/><path class="cls-1" d="M277.25,378.49h0c-39.17,12.95-78.3,12.64-117.4-.32a59,59,0,0,1-19.57-7.39c-7.68,2.58-14.8,6.65-13.39,14.81,6,1.5,15.75,4,21.75,5.62,45.07,12.41,88.87,8.49,131.58-10,7.51-2.23,14.2-5.88,19.34-12.47Z"/><path class="cls-1" d="M436.18,137.42c-5.88,32.17-27,54.3-39,63.76-6.06,4.77-12.9,5.24-18.67,1.49-12.21-7.93-24.79-15.65-34.66-26.61C325.18,155.38,308,133.37,289.14,113c-8.62-9.32-15.44-20.57-26.61-27.45-3.31-3.13-6.7-6.2-9.93-9.42-12.84-12.79-27-23.58-44.13-30.07-20.15-7.66-40.68-.52-49.26,19.09-13.35,30.53-5.67,60.71,3.8,90.58a86.19,86.19,0,0,0,4.73-18c4.68-28.19,20.26-34.74,43.94-18.37,2.06,1.42,4,3,5.95,4.59,15,12.33,15,12.33,3.32,27.26-2.83,3.61-5.49,7.35-8.31,11-44.72,57.08-74.35,121.27-90.55,191.81-3.1,9.88-13.39,58.29-13.67,70.66,6.71-10.51,30-52.29,37.31-59.14,38.39-56.52,87.83-100,150.49-128.14,15.5-7,20.95-7.05,34.06,5.92,15.52,15.36,34.48,24.42,55.5,28.86,16.19,3.42,31.25-4.38,39.9-19.13C450,211.36,447.48,160.63,436.18,137.42Z"/></g></g></svg>