<?xml version="1.0"?>
<svg xmlns="http://www.w3.org/2000/svg" id="Capa_1" enable-background="new 0 0 512 512" height="512" viewBox="0 0 512 512" width="512" class=""><g><g><path d="m276 126.07c-21.93 12.44-46.595 18.93-72.427 18.93h-44.201c-6.242 0-12.389-.665-18.373-1.921v31.921c0 63.411 51.589 115 115 115s115-51.589 115-115v-30h-22.574c-25.831 0-50.496-6.49-72.425-18.93z" data-original="#000000" class="active-path" style="fill:#FFFFFF" data-old_color="#000000"/><g><path d="m208.5 427h2.802l-83.704-95.213c-43.659 8.57-76.598 47.042-76.598 93.213v72c0 8.284 6.716 15 15 15h92.016c-4.47-8.174-7.016-17.544-7.016-27.5 0-31.706 25.794-57.5 57.5-57.5z" data-original="#000000" class="active-path" style="fill:#FFFFFF" data-old_color="#000000"/><path d="m237.676 457h-29.176c-15.164 0-27.5 12.337-27.5 27.5 0 15.157 12.326 27.489 27.481 27.5h77.547z" data-original="#000000" class="active-path" style="fill:#FFFFFF" data-old_color="#000000"/></g><path d="m348.426 115c-26.595 0-51.842-8.782-72.426-24.974-20.584 16.192-45.831 24.974-72.427 24.974h-44.201c-31.554 0-57.885-25.057-58.366-56.608-.489-32.113 25.491-58.392 57.494-58.392h147.5c35.898 0 65 29.101 65 65v50z" data-original="#000000" class="active-path" style="fill:#FFFFFF" data-old_color="#000000"/><g><g><path d="m461 425c0-52.467-42.533-95-95-95h-60v-18.887c-15.593 5.746-32.436 8.887-50 8.887s-34.407-3.141-50-8.887v13.205l145 84.769v-4.087c0-8.284 6.716-15 15-15s15 6.716 15 15v21.626l80 46.769z" data-original="#000000" class="active-path" style="fill:#FFFFFF" data-old_color="#000000"/></g><path d="m176.222 341.658 149.75 170.342h120.028c4.784 0 9.036-2.248 11.782-5.736z" data-original="#000000" class="active-path" style="fill:#FFFFFF" data-old_color="#000000"/></g></g></g> </svg>
