<?xml version="1.0"?>
<svg xmlns="http://www.w3.org/2000/svg" xmlns:xlink="http://www.w3.org/1999/xlink" xmlns:svgjs="http://svgjs.com/svgjs" version="1.1" width="512" height="512" x="0" y="0" viewBox="0 0 513 513" style="enable-background:new 0 0 512 512" xml:space="preserve" class=""><g><linearGradient xmlns="http://www.w3.org/2000/svg" id="lg1"><stop offset="0" stop-color="#fff"/><stop offset="1"/></linearGradient><linearGradient xmlns="http://www.w3.org/2000/svg" xmlns:xlink="http://www.w3.org/1999/xlink" id="SVGID_1_" gradientUnits="userSpaceOnUse" x1="0" x2="513" xlink:href="#lg1" y1="469" y2="469"/><linearGradient xmlns="http://www.w3.org/2000/svg" xmlns:xlink="http://www.w3.org/1999/xlink" id="SVGID_2_" gradientUnits="userSpaceOnUse" x1="0" x2="111" xlink:href="#lg1" y1="346.5" y2="346.5"/><linearGradient xmlns="http://www.w3.org/2000/svg" xmlns:xlink="http://www.w3.org/1999/xlink" id="SVGID_3_" gradientUnits="userSpaceOnUse" x1="398.388" x2="444.391" xlink:href="#lg1" y1="295.646" y2="295.646"/><linearGradient xmlns="http://www.w3.org/2000/svg" xmlns:xlink="http://www.w3.org/1999/xlink" id="SVGID_4_" gradientUnits="userSpaceOnUse" x1="124.834" x2="513" xlink:href="#lg1" y1="296.495" y2="296.495"/><linearGradient xmlns="http://www.w3.org/2000/svg" xmlns:xlink="http://www.w3.org/1999/xlink" id="SVGID_5_" gradientUnits="userSpaceOnUse" x1="153.39" x2="415.238" xlink:href="#lg1" y1="205.247" y2="205.247"/><linearGradient xmlns="http://www.w3.org/2000/svg" xmlns:xlink="http://www.w3.org/1999/xlink" id="SVGID_6_" gradientUnits="userSpaceOnUse" x1="240" x2="361" xlink:href="#lg1" y1="66.5" y2="66.5"/><g xmlns="http://www.w3.org/2000/svg"><g><g stroke-miterlimit="10"><path d="m497.5 506.5h-482c-8.284 0-15-6.716-15-15 0-33.137 26.863-60 60-60h392c33.137 0 60 26.863 60 60 0 8.284-6.716 15-15 15z" stroke="url(#SVGID_1_)" fill="#ffffff" data-original="#000000" style="" class=""/><path d="m55.5 401.5c-30.327 0-55-24.673-55-55s24.673-55 55-55 55 24.673 55 55-24.673 55-55 55z" stroke="url(#SVGID_2_)" fill="#ffffff" data-original="#000000" style="" class=""/><path d="m398.888 306.139v5.361h45.003v-31.343z" stroke="url(#SVGID_3_)" fill="#ffffff" data-original="#000000" style="" class=""/></g><g><path d="m482.5 341.5h-113.613v-52.681l71.068-41.031c14.156-8.173 19.715-26.182 11.933-40.557-8.074-14.915-26.801-20.141-41.393-11.717l-86.603 50c-9.615 5.552-14.866 15.628-14.875 25.986h-.129v40h-159.388c-5.406 0-10.589.955-15.391 2.703 4.109 9.964 6.391 20.867 6.391 32.297 0 17.837-5.534 34.399-14.959 48.085 6.939 4.375 15.15 6.915 23.959 6.915h332.376c16.347 0 30.165-12.817 30.612-29.157.465-16.954-13.139-30.843-29.988-30.843z" stroke="url(#SVGID_4_)" stroke-miterlimit="10" fill="#ffffff" data-original="#000000" style="" class=""/></g></g><g><path d="m395.254 142.899c-9.515-6.064-19.879-10.51-30.712-13.232-16.33 16.554-39.007 26.833-64.042 26.833-25.348 0-48.279-10.538-64.652-27.458-46.905 10.503-81.958 52.384-81.958 102.458v20c0 16.569 13.431 30 30 30h10 69.998c8.284 0 15-6.716 15-15v-.006c0-8.281-6.713-14.994-14.994-14.994h-50.004c-8.284 0-15-6.716-15-15v-29.576c0-8.077 6.207-15.027 14.275-15.407 8.614-.406 15.725 6.458 15.725 14.983v15h34.998c11.264 0 21.567 4.17 29.469 11.034 4.352-5.127 9.572-9.556 15.536-13l86.603-50 18.938-10.934c-5.728-5.936-12.151-11.22-19.18-15.701z" stroke="url(#SVGID_5_)" stroke-miterlimit="10" fill="#ffffff" data-original="#000000" style="" class=""/></g><path d="m300.5 126.5c-33.084 0-60-26.916-60-60s26.916-60 60-60 60 26.916 60 60-26.916 60-60 60z" stroke="url(#SVGID_6_)" stroke-miterlimit="10" fill="#ffffff" data-original="#000000" style="" class=""/></g></g></svg>
