<svg id="Capa_1" enable-background="new 0 0 512 512" height="512" viewBox="0 0 512 512" width="512" xmlns="http://www.w3.org/2000/svg"><g><path d="m462.851 512c1.719 0 2.973-1.627 2.535-3.29l-22.91-86.885c-2.081-7.893-2.759-16.09-2.001-24.217l2.989-32.077c3.476-37.312-9.723-74.252-36.057-100.913l-45.048-45.606-35.736 53.191 42.59 146.787-3.048 43.79c-.308 4.425.033 8.872 1.013 13.199l7.695 33.979c.271 1.195 1.332 2.043 2.557 2.043z" fill="#d5985c"/><path d="m442.477 421.825c-2.081-7.893-2.759-16.09-2.001-24.218l2.989-32.077c3.476-37.312-9.723-74.253-36.057-100.913l-45.048-45.605-8.542 12.715 32.489 32.891c26.335 26.661 39.534 63.601 36.057 100.913l-2.989 32.077c-.757 8.127-.08 16.324 2.001 24.217l23.776 90.175h-69.815 87.514c1.719 0 2.973-1.627 2.535-3.29z" fill="#c38959"/><path d="m46.658 508.562 33.553-102.379c3.274-9.99 4.677-20.499 4.139-30.998l-3.353-65.373c-1.24-24.187 5.997-48.048 20.464-67.471l45.201-60.683 48.924 33.272-26.003 185.479-10.891 109.23c-.134 1.341-1.262 2.362-2.609 2.362h-106.934c-1.783-.001-3.046-1.744-2.491-3.439z" fill="#d5985c"/><path d="m195.587 214.929-27.526-18.72-21.398-14.552-8.795 11.808c3.094 8.337 5.924 16.675 8.507 25.014 1.68 5.426.917 11.313-2.071 16.144l-14.492 23.432c-4.192 6.779-1.07 15.697 6.434 18.381l40.251 14.394c.613-2.988 1.453-5.932 2.543-8.794l11.299-29.672.904-6.446z" fill="#c38959"/><path d="m146.663 181.658-5.514 7.403 38.038 25.869-26.003 185.479-11.127 111.591h14.026c1.347 0 2.475-1.021 2.609-2.362l10.891-109.23 26.003-185.479z" fill="#c38959"/><path d="m304.347 88.26 3.307-12.794c2.779-10.75 11.5-18.939 22.404-21.036 6.112-1.175 12.347 1.336 15.938 6.42 3.408 4.825 3.85 11.144 1.147 16.396l-16.343 31.755z" fill="#e2a770"/><path d="m278.831 77.902 10.409-30.686c1.453-4.283 4.81-7.649 9.09-9.113l2.49-.852c4.985-1.705 10.502-.589 14.432 2.919 4.245 3.79 5.898 9.704 4.232 15.146l-7.93 25.909z" fill="#f1b986"/><path d="m241.725 76.828 9.151-39.83c1.277-5.559 5.061-10.211 10.244-12.593l3.016-1.386c6.037-2.775 13.102-2.077 18.481 1.825 5.81 4.215 8.637 11.425 7.24 18.465l-6.649 33.52h-41.483z" fill="#e2a770"/><path d="m203.69 76.828v-24.118l11.136-33.569c1.097-3.307 3.068-6.256 5.704-8.534l.961-.831c8.446-7.3 21.303-5.943 28.039 2.959 2.307 3.049 3.7 6.71 3.883 10.529.792 16.57-1.493 34.604-5.724 53.564z" fill="#f1b986"/><path d="m354.942 128.646c-3.751-29.638-29.046-51.818-58.92-51.818h-72.897c-8.183 0-14.767-6.664-14.734-14.846.039-9.437-.275-18.873-.942-28.31-1.339-18.935-16.969-33.672-35.952-33.672-22.302 0-39.085 20.036-35.51 42.049 4.18 25.738 3.48 50.044-2.101 78.87-2.919 12.271-1.846 25.513 3.398 37.591 27.867 64.175 40.729 128.407 38.668 192.697-.931 29.046 12.74 56.908 37.096 72.76 13.725 8.933 30.057 14.056 47.402 14.056h10.976c44.6 0 82.035-33.742 86.503-78.117 7.764-77.086 6.768-154.173-2.987-231.26z" fill="#f1b986"/><g fill="#e2a770"><path d="m187.356 33.672c.667 9.437.981 18.873.942 28.31-.033 8.183 6.551 14.846 14.734 14.846h20.093c-8.183 0-14.767-6.664-14.734-14.846.039-9.436-.275-18.873-.942-28.31-1.339-18.935-16.969-33.672-35.952-33.672-3.513 0-6.888.499-10.07 1.423 14.204 4.121 24.835 16.782 25.929 32.249z"/><path d="m354.942 128.646c-3.751-29.638-29.046-51.818-58.92-51.818h-20.093c29.874 0 55.169 22.18 58.92 51.818 9.755 77.087 10.751 154.173 2.988 231.26-4.314 42.838-39.35 75.756-81.895 77.987 1.496.077 2.997.13 4.509.13h10.976c44.6 0 82.035-33.742 86.503-78.117 7.763-77.086 6.767-154.173-2.988-231.26z"/></g><path d="m154.55 424.152c24.508-33.051 37.739-73.108 37.739-114.254v-4.112c0-6.897 1.258-13.736 3.713-20.182l22.743-72.699c2.734-7.18.465-15.304-5.595-20.027-8.228-6.412-20.203-4.246-25.663 4.642l-46.203 73.075c-1.718 2.718-2.468 5.936-2.127 9.133z" fill="#d5985c"/><path d="m213.15 192.879c-5.471-4.264-12.591-4.715-18.359-1.939 1.081.526 2.127 1.167 3.117 1.939 6.06 4.723 8.33 12.847 5.595 20.027l-22.744 72.699c-2.455 6.446-3.713 13.285-3.713 20.182v4.112c0 27.175 1.736 58.903-16.757 78.392-8.719 9.188-9.397 21.948-5.789 35.417l.048.446c24.508-33.051 37.739-73.108 37.739-114.254v-4.112c0-6.897 1.258-13.736 3.713-20.182l22.744-72.699c2.736-7.182.466-15.305-5.594-20.028z" fill="#c38959"/><path d="m382.437 479.625-11.664-12.603c-28.146-30.414-40.366-72.286-32.996-113.065.825-4.567-.183-9.275-2.805-13.104l-47.966-70.02c-5.412-7.901-3.83-18.636 3.631-24.64 7.098-5.711 17.313-5.343 23.981.865l58.439 54.407z" fill="#d5985c"/><g><path d="m242.931 226.738c-4.267 0-7.726-3.459-7.726-7.726v-23.909c0-8.908-4.445-17.147-11.891-22.038-8.794-5.776-20.156-5.778-28.95-.003l-15.389 10.104c-3.567 2.342-8.357 1.35-10.699-2.218-2.342-3.566-1.349-8.357 2.218-10.699l15.388-10.104c13.945-9.158 31.969-9.157 45.916.005 11.809 7.758 18.859 20.825 18.859 34.954v23.909c0 4.266-3.459 7.725-7.726 7.725z" fill="#e2a770"/></g><g><path d="m266.624 287.987c-3.21 0-6.209-2.017-7.309-5.224l-5.288-15.439c-5.75-16.788-.759-35.096 12.717-46.642 13.442-11.516 32.932-13.593 48.496-5.169l7.989 4.322c3.753 2.031 5.149 6.72 3.119 10.473-2.031 3.754-6.718 5.148-10.473 3.119l-7.989-4.323c-9.979-5.402-22.472-4.07-31.088 3.313-8.639 7.401-11.838 19.138-8.152 29.899l5.289 15.439c1.382 4.037-.769 8.431-4.806 9.814-.829.283-1.674.418-2.505.418z" fill="#e2a770"/></g></g></svg>