<svg height="512" viewBox="0 0 64 64" width="512" xmlns="http://www.w3.org/2000/svg"><g id="flat"><path d="m22 13h14v24h-14z" fill="#d3843d"/><path d="m47 61v-41c0-9.389-5.82-17-13-17h-12l13 17v37a4 4 0 0 0 4 4z" fill="#ffd782"/><ellipse cx="22" cy="20" fill="#f9bb4b" rx="13" ry="17"/><path d="m51 61a4 4 0 0 0 4-4v-4h-12v4a4 4 0 0 1 -4 4z" fill="#f9bb4b"/><g fill="#d3843d"><path d="m21 6h2v4h-2z"/><path d="m21 30h2v4h-2z"/><path d="m28 19h4v2h-4z"/><path d="m12 19h4v2h-4z"/><path d="m14.5 10.197h2v3.606h-2z" transform="matrix(.555 -.832 .832 .555 -3.082 18.24)"/><path d="m26.697 11h3.606v2h-3.606z" transform="matrix(.832 -.555 .555 .832 -1.87 17.824)"/><path d="m13.697 27h3.606v2h-3.606z" transform="matrix(.832 -.555 .555 .832 -12.928 13.3)"/><path d="m27.5 26.197h2v3.606h-2z" transform="matrix(.555 -.832 .832 .555 -10.606 36.182)"/></g><path d="m42 31h2v15h-2z" fill="#f9bb4b"/><path d="m42 48h2v2h-2z" fill="#f9bb4b"/><ellipse cx="22" cy="20" fill="#ffd782" rx="7" ry="11"/><ellipse cx="22" cy="20" fill="#fff69a" rx="3" ry="7"/></g></svg>