<svg height="512" viewBox="0 0 64 64" width="512" xmlns="http://www.w3.org/2000/svg"><g id="flat"><path d="m27.44 21.1c-1.84-1.746-4.046-3.724-6.44-6.1-8.063-8-10-12-10-12h29s2.756 2.783 5.81 6.09z" fill="#ffd782"/><path d="m51.43 42c-.591 8.483-1.43 19-1.43 19h-15s-1.4-9.662-1.98-19z" fill="#ffd782"/><path d="m51.7 38c-.08 1.24-.17 2.59-.27 4h-18.41a77.345 77.345 0 0 1 -.02-12c.31-2.93-1.95-5.47-5.56-8.9l18.37-12.01c.9.97 1.82 1.99 2.71 3z" fill="#92cdde"/><path d="m39 19-5 3s3 3 3 6l7.356-4.5a7.224 7.224 0 0 0 -5.356-4.5z" fill="#f4f4e6"/><path d="m52 32c0 .98-.12 3.2-.3 6h-7.7v-10c0-7-5-9-5-9l9.52-6.91c.89 1 1.73 1.99 2.48 2.91 5.93 7.3 1 11 1 17z" fill="#4f97d5"/><g fill="#f4f4e6"><path d="m44 38h-7v-4l7-2z"/><path d="m47 16h2v2h-2z"/><path d="m49 21h2v2h-2z"/><path d="m48 25h2v2h-2z"/><path d="m47 30h2v2h-2z"/><path d="m45 20h2v2h-2z"/></g></g></svg>